<?xml version="1.0" encoding="UTF-8"?>
<!DOCTYPE svg
PUBLIC "-//W3C//DTD SVG 1.1//EN"
       "http://www.w3.org/Graphics/SVG/1.1/DTD/svg11.dtd">
<svg viewBox="-15 5 991 642" width="1006px" height="637px" xmlns="http://www.w3.org/2000/svg" version="1.1">
   <line x1="580" y1="497" x2="570" y2="497" style="stroke:#333;stroke-width:1;"/>
   <line x1="469" y1="142" x2="459" y2="142" style="stroke:#333;stroke-width:1;"/>
   <line x1="570" y1="497" x2="469" y2="142" style="stroke:#333;stroke-width:1;"/>
   <line x1="572.5" y1="497" x2="576.03553390593" y2="500.53553390593" style="stroke:#333;stroke-width:2;"/>
   <line x1="572.5" y1="497" x2="576.03553390593" y2="493.46446609407" style="stroke:#333;stroke-width:2;"/>
   <line x1="464" y1="142" x2="467.53553390593" y2="145.53553390593" style="stroke:#333;stroke-width:2;"/>
   <line x1="464" y1="142" x2="467.53553390593" y2="138.46446609407" style="stroke:#333;stroke-width:2;"/>
   <line x1="120" y1="325" x2="110" y2="325" style="stroke:#333;stroke-width:1;"/>
   <line x1="96" y1="187" x2="86" y2="187" style="stroke:#333;stroke-width:1;"/>
   <line x1="110" y1="325" x2="96" y2="187" style="stroke:#333;stroke-width:1;"/>
   <line x1="112.5" y1="325" x2="116.03553390593" y2="328.53553390593" style="stroke:#333;stroke-width:2;"/>
   <line x1="112.5" y1="325" x2="116.03553390593" y2="321.46446609407" style="stroke:#333;stroke-width:2;"/>
   <line x1="91" y1="187" x2="94.535533905933" y2="190.53553390593" style="stroke:#333;stroke-width:2;"/>
   <line x1="91" y1="187" x2="94.535533905933" y2="183.46446609407" style="stroke:#333;stroke-width:2;"/>
   <line x1="837" y1="153" x2="827" y2="153" style="stroke:#c00;stroke-width:1;"/>
   <line x1="225" y1="305" x2="215" y2="305" style="stroke:#c00;stroke-width:1;"/>
   <line x1="827" y1="153" x2="225" y2="305" style="stroke:#c00;stroke-width:1;"/>
   <line x1="829.5" y1="153" x2="833.03553390593" y2="156.53553390593" style="stroke:#c00;stroke-width:2;"/>
   <line x1="829.5" y1="153" x2="833.03553390593" y2="149.46446609407" style="stroke:#c00;stroke-width:2;"/>
   <line x1="220" y1="305" x2="223.53553390593" y2="308.53553390593" style="stroke:#c00;stroke-width:2;"/>
   <line x1="220" y1="305" x2="223.53553390593" y2="301.46446609407" style="stroke:#c00;stroke-width:2;"/>
   <line x1="599" y1="307" x2="609" y2="307" style="stroke:#0b0;stroke-width:1;"/>
   <line x1="827" y1="133" x2="837" y2="133" style="stroke:#0b0;stroke-width:1;"/>
   <line x1="609" y1="307" x2="827" y2="133" style="stroke:#0b0;stroke-width:1;"/>
   <line x1="606.5" y1="307" x2="602.96446609407" y2="310.53553390593" style="stroke:#0b0;stroke-width:2;"/>
   <line x1="606.5" y1="307" x2="602.96446609407" y2="303.46446609407" style="stroke:#0b0;stroke-width:2;"/>
   <line x1="832" y1="133" x2="828.46446609407" y2="136.53553390593" style="stroke:#0b0;stroke-width:2;"/>
   <line x1="832" y1="133" x2="828.46446609407" y2="129.46446609407" style="stroke:#0b0;stroke-width:2;"/>
   <line x1="507" y1="287" x2="497" y2="287" style="stroke:#c00;stroke-width:1;"/>
   <line x1="275" y1="56" x2="265" y2="56" style="stroke:#c00;stroke-width:1;"/>
   <line x1="497" y1="287" x2="275" y2="56" style="stroke:#c00;stroke-width:1;"/>
   <line x1="499.5" y1="287" x2="503.03553390593" y2="290.53553390593" style="stroke:#c00;stroke-width:2;"/>
   <line x1="499.5" y1="287" x2="503.03553390593" y2="283.46446609407" style="stroke:#c00;stroke-width:2;"/>
   <line x1="270" y1="56" x2="273.53553390593" y2="59.535533905933" style="stroke:#c00;stroke-width:2;"/>
   <line x1="270" y1="56" x2="273.53553390593" y2="52.464466094067" style="stroke:#c00;stroke-width:2;"/>
   <line x1="846" y1="416" x2="836" y2="416" style="stroke:#bbb;stroke-width:1;"/>
   <line x1="609" y1="267" x2="599" y2="267" style="stroke:#bbb;stroke-width:1;"/>
   <line x1="836" y1="416" x2="609" y2="267" style="stroke:#bbb;stroke-width:1;"/>
   <line x1="838.5" y1="416" x2="842.03553390593" y2="419.53553390593" style="stroke:#bbb;stroke-width:2;"/>
   <line x1="838.5" y1="416" x2="842.03553390593" y2="412.46446609407" style="stroke:#bbb;stroke-width:2;"/>
   <line x1="604" y1="267" x2="607.53553390593" y2="270.53553390593" style="stroke:#bbb;stroke-width:2;"/>
   <line x1="604" y1="267" x2="607.53553390593" y2="263.46446609407" style="stroke:#bbb;stroke-width:2;"/>
   <line x1="265" y1="76" x2="275" y2="76" style="stroke:#c00;stroke-width:1;"/>
   <line x1="340" y1="142" x2="350" y2="142" style="stroke:#c00;stroke-width:1;"/>
   <line x1="275" y1="76" x2="340" y2="142" style="stroke:#c00;stroke-width:1;"/>
   <line x1="272.5" y1="76" x2="268.96446609407" y2="79.535533905933" style="stroke:#c00;stroke-width:2;"/>
   <line x1="272.5" y1="76" x2="268.96446609407" y2="72.464466094067" style="stroke:#c00;stroke-width:2;"/>
   <line x1="345" y1="142" x2="341.46446609407" y2="145.53553390593" style="stroke:#c00;stroke-width:2;"/>
   <line x1="345" y1="142" x2="341.46446609407" y2="138.46446609407" style="stroke:#c00;stroke-width:2;"/>
   <line x1="555" y1="90" x2="545" y2="90" style="stroke:#bbb;stroke-width:1;"/>
   <line x1="536" y1="412" x2="526" y2="412" style="stroke:#bbb;stroke-width:1;"/>
   <line x1="545" y1="90" x2="536" y2="412" style="stroke:#bbb;stroke-width:1;"/>
   <line x1="547.5" y1="90" x2="551.03553390593" y2="93.535533905933" style="stroke:#bbb;stroke-width:2;"/>
   <line x1="547.5" y1="90" x2="551.03553390593" y2="86.464466094067" style="stroke:#bbb;stroke-width:2;"/>
   <line x1="531" y1="412" x2="534.53553390593" y2="415.53553390593" style="stroke:#bbb;stroke-width:2;"/>
   <line x1="531" y1="412" x2="534.53553390593" y2="408.46446609407" style="stroke:#bbb;stroke-width:2;"/>
   <line x1="555" y1="70" x2="545" y2="70" style="stroke:#cb0;stroke-width:1;"/>
   <line x1="275" y1="56" x2="265" y2="56" style="stroke:#cb0;stroke-width:1;"/>
   <line x1="545" y1="70" x2="275" y2="56" style="stroke:#cb0;stroke-width:1;"/>
   <line x1="547.5" y1="70" x2="551.03553390593" y2="73.535533905933" style="stroke:#cb0;stroke-width:2;"/>
   <line x1="547.5" y1="70" x2="551.03553390593" y2="66.464466094067" style="stroke:#cb0;stroke-width:2;"/>
   <line x1="270" y1="56" x2="273.53553390593" y2="59.535533905933" style="stroke:#cb0;stroke-width:2;"/>
   <line x1="270" y1="56" x2="273.53553390593" y2="52.464466094067" style="stroke:#cb0;stroke-width:2;"/>
   <line x1="350" y1="182" x2="340" y2="182" style="stroke:#b0b;stroke-width:1;"/>
   <line x1="225" y1="305" x2="215" y2="305" style="stroke:#b0b;stroke-width:1;"/>
   <line x1="340" y1="182" x2="225" y2="305" style="stroke:#b0b;stroke-width:1;"/>
   <line x1="342.5" y1="182" x2="346.03553390593" y2="185.53553390593" style="stroke:#b0b;stroke-width:2;"/>
   <line x1="342.5" y1="182" x2="346.03553390593" y2="178.46446609407" style="stroke:#b0b;stroke-width:2;"/>
   <line x1="220" y1="305" x2="223.53553390593" y2="308.53553390593" style="stroke:#b0b;stroke-width:2;"/>
   <line x1="220" y1="305" x2="223.53553390593" y2="301.46446609407" style="stroke:#b0b;stroke-width:2;"/>
   <line x1="350" y1="162" x2="340" y2="162" style="stroke:#0bf;stroke-width:1;"/>
   <line x1="96" y1="187" x2="86" y2="187" style="stroke:#0bf;stroke-width:1;"/>
   <line x1="340" y1="162" x2="96" y2="187" style="stroke:#0bf;stroke-width:1;"/>
   <line x1="342.5" y1="162" x2="346.03553390593" y2="165.53553390593" style="stroke:#0bf;stroke-width:2;"/>
   <line x1="342.5" y1="162" x2="346.03553390593" y2="158.46446609407" style="stroke:#0bf;stroke-width:2;"/>
   <line x1="91" y1="187" x2="94.535533905933" y2="190.53553390593" style="stroke:#0bf;stroke-width:2;"/>
   <line x1="91" y1="187" x2="94.535533905933" y2="183.46446609407" style="stroke:#0bf;stroke-width:2;"/>
   <rect width="89" height="20" x="580" y="447" style="fill:#007;stroke:black;"/>
   <text width="89" height="20" x="585" y="461" style="fill:#fff;" font-family="Arial" font-size="16px"> audit_logs</text>
   <rect width="89" height="20" x="580" y="467" style="fill:#aea;stroke:black;"/>
   <text width="89" height="20" x="585" y="481" style="fill:black;" font-family="Arial" font-size="16px">id</text>
   <rect width="89" height="20" x="580" y="487" style="fill:none;stroke:black;"/>
   <text width="89" height="20" x="585" y="501" style="fill:black;" font-family="Arial" font-size="16px">user_id</text>
   <rect width="89" height="20" x="580" y="507" style="fill:none;stroke:black;"/>
   <text width="89" height="20" x="585" y="521" style="fill:black;" font-family="Arial" font-size="16px">event_type</text>
   <rect width="89" height="20" x="580" y="527" style="fill:none;stroke:black;"/>
   <text width="89" height="20" x="585" y="541" style="fill:black;" font-family="Arial" font-size="16px">model_type</text>
   <rect width="89" height="20" x="580" y="547" style="fill:none;stroke:black;"/>
   <text width="89" height="20" x="585" y="561" style="fill:black;" font-family="Arial" font-size="16px">model_id</text>
   <rect width="89" height="20" x="580" y="567" style="fill:none;stroke:black;"/>
   <text width="89" height="20" x="585" y="581" style="fill:black;" font-family="Arial" font-size="16px">ip_address</text>
   <rect width="89" height="20" x="580" y="587" style="fill:none;stroke:black;"/>
   <text width="89" height="20" x="585" y="601" style="fill:black;" font-family="Arial" font-size="16px">user_agent</text>
   <rect width="89" height="20" x="580" y="607" style="fill:none;stroke:black;"/>
   <text width="89" height="20" x="585" y="621" style="fill:black;" font-family="Arial" font-size="16px">created_at</text>
   <rect width="95" height="20" x="120" y="275" style="fill:#007;stroke:black;"/>
   <text width="95" height="20" x="125" y="289" style="fill:#fff;" font-family="Arial" font-size="16px"> departments</text>
   <rect width="95" height="20" x="120" y="295" style="fill:#aea;stroke:black;"/>
   <text width="95" height="20" x="125" y="309" style="fill:black;" font-family="Arial" font-size="16px">id</text>
   <rect width="95" height="20" x="120" y="315" style="fill:none;stroke:black;"/>
   <text width="95" height="20" x="125" y="329" style="fill:black;" font-family="Arial" font-size="16px">university_id</text>
   <rect width="95" height="20" x="120" y="335" style="fill:none;stroke:black;"/>
   <text width="95" height="20" x="125" y="349" style="fill:black;" font-family="Arial" font-size="16px">name</text>
   <rect width="95" height="20" x="120" y="355" style="fill:none;stroke:black;"/>
   <text width="95" height="20" x="125" y="369" style="fill:black;" font-family="Arial" font-size="16px">created_at</text>
   <rect width="95" height="20" x="120" y="375" style="fill:none;stroke:black;"/>
   <text width="95" height="20" x="125" y="389" style="fill:black;" font-family="Arial" font-size="16px">updated_at</text>
   <rect width="115" height="20" x="837" y="103" style="fill:#007;stroke:black;"/>
   <text width="115" height="20" x="842" y="117" style="fill:#fff;" font-family="Arial" font-size="16px"> fees</text>
   <rect width="115" height="20" x="837" y="123" style="fill:#aea;stroke:black;"/>
   <text width="115" height="20" x="842" y="137" style="fill:black;" font-family="Arial" font-size="16px">id</text>
   <rect width="115" height="20" x="837" y="143" style="fill:none;stroke:black;"/>
   <text width="115" height="20" x="842" y="157" style="fill:black;" font-family="Arial" font-size="16px">department_id</text>
   <rect width="115" height="20" x="837" y="163" style="fill:none;stroke:black;"/>
   <text width="115" height="20" x="842" y="177" style="fill:black;" font-family="Arial" font-size="16px">name</text>
   <rect width="115" height="20" x="837" y="183" style="fill:none;stroke:black;"/>
   <text width="115" height="20" x="842" y="197" style="fill:black;" font-family="Arial" font-size="16px">amount</text>
   <rect width="115" height="20" x="837" y="203" style="fill:none;stroke:black;"/>
   <text width="115" height="20" x="842" y="217" style="fill:black;" font-family="Arial" font-size="16px">academic_year</text>
   <rect width="115" height="20" x="837" y="223" style="fill:none;stroke:black;"/>
   <text width="115" height="20" x="842" y="237" style="fill:black;" font-family="Arial" font-size="16px">description</text>
   <rect width="115" height="20" x="837" y="243" style="fill:none;stroke:black;"/>
   <text width="115" height="20" x="842" y="257" style="fill:black;" font-family="Arial" font-size="16px">created_at</text>
   <rect width="115" height="20" x="837" y="263" style="fill:none;stroke:black;"/>
   <text width="115" height="20" x="842" y="277" style="fill:black;" font-family="Arial" font-size="16px">updated_at</text>
   <rect width="92" height="20" x="507" y="237" style="fill:#007;stroke:black;"/>
   <text width="92" height="20" x="512" y="251" style="fill:#fff;" font-family="Arial" font-size="16px"> invoices</text>
   <rect width="92" height="20" x="507" y="257" style="fill:#aea;stroke:black;"/>
   <text width="92" height="20" x="512" y="271" style="fill:black;" font-family="Arial" font-size="16px">id</text>
   <rect width="92" height="20" x="507" y="277" style="fill:none;stroke:black;"/>
   <text width="92" height="20" x="512" y="291" style="fill:black;" font-family="Arial" font-size="16px">student_id</text>
   <rect width="92" height="20" x="507" y="297" style="fill:none;stroke:black;"/>
   <text width="92" height="20" x="512" y="311" style="fill:black;" font-family="Arial" font-size="16px">fee_id</text>
   <rect width="92" height="20" x="507" y="317" style="fill:none;stroke:black;"/>
   <text width="92" height="20" x="512" y="331" style="fill:black;" font-family="Arial" font-size="16px">status</text>
   <rect width="92" height="20" x="507" y="337" style="fill:none;stroke:black;"/>
   <text width="92" height="20" x="512" y="351" style="fill:black;" font-family="Arial" font-size="16px">issued_date</text>
   <rect width="92" height="20" x="507" y="357" style="fill:none;stroke:black;"/>
   <text width="92" height="20" x="512" y="371" style="fill:black;" font-family="Arial" font-size="16px">due_date</text>
   <rect width="92" height="20" x="507" y="377" style="fill:none;stroke:black;"/>
   <text width="92" height="20" x="512" y="391" style="fill:black;" font-family="Arial" font-size="16px">created_at</text>
   <rect width="92" height="20" x="507" y="397" style="fill:none;stroke:black;"/>
   <text width="92" height="20" x="512" y="411" style="fill:black;" font-family="Arial" font-size="16px">updated_at</text>
   <rect width="83" height="20" x="62" y="429" style="fill:#007;stroke:black;"/>
   <text width="83" height="20" x="67" y="443" style="fill:#fff;" font-family="Arial" font-size="16px"> migrations</text>
   <rect width="83" height="20" x="62" y="449" style="fill:#aea;stroke:black;"/>
   <text width="83" height="20" x="67" y="463" style="fill:black;" font-family="Arial" font-size="16px">id</text>
   <rect width="83" height="20" x="62" y="469" style="fill:none;stroke:black;"/>
   <text width="83" height="20" x="67" y="483" style="fill:black;" font-family="Arial" font-size="16px">migration</text>
   <rect width="83" height="20" x="62" y="489" style="fill:none;stroke:black;"/>
   <text width="83" height="20" x="67" y="503" style="fill:black;" font-family="Arial" font-size="16px">batch</text>
   <rect width="130" height="20" x="846" y="366" style="fill:#007;stroke:black;"/>
   <text width="130" height="20" x="851" y="380" style="fill:#fff;" font-family="Arial" font-size="16px"> payments</text>
   <rect width="130" height="20" x="846" y="386" style="fill:#aea;stroke:black;"/>
   <text width="130" height="20" x="851" y="400" style="fill:black;" font-family="Arial" font-size="16px">id</text>
   <rect width="130" height="20" x="846" y="406" style="fill:none;stroke:black;"/>
   <text width="130" height="20" x="851" y="420" style="fill:black;" font-family="Arial" font-size="16px">invoice_id</text>
   <rect width="130" height="20" x="846" y="426" style="fill:none;stroke:black;"/>
   <text width="130" height="20" x="851" y="440" style="fill:black;" font-family="Arial" font-size="16px">payment_method</text>
   <rect width="130" height="20" x="846" y="446" style="fill:none;stroke:black;"/>
   <text width="130" height="20" x="851" y="460" style="fill:black;" font-family="Arial" font-size="16px">amount</text>
   <rect width="130" height="20" x="846" y="466" style="fill:none;stroke:black;"/>
   <text width="130" height="20" x="851" y="480" style="fill:black;" font-family="Arial" font-size="16px">reference</text>
   <rect width="130" height="20" x="846" y="486" style="fill:none;stroke:black;"/>
   <text width="130" height="20" x="851" y="500" style="fill:black;" font-family="Arial" font-size="16px">payment_date</text>
   <rect width="130" height="20" x="846" y="506" style="fill:none;stroke:black;"/>
   <text width="130" height="20" x="851" y="520" style="fill:black;" font-family="Arial" font-size="16px">created_at</text>
   <rect width="130" height="20" x="846" y="526" style="fill:none;stroke:black;"/>
   <text width="130" height="20" x="851" y="540" style="fill:black;" font-family="Arial" font-size="16px">updated_at</text>
   <rect width="95" height="20" x="431" y="382" style="fill:#007;stroke:black;"/>
   <text width="95" height="20" x="436" y="396" style="fill:#fff;" font-family="Arial" font-size="16px"> scholarships</text>
   <rect width="95" height="20" x="431" y="402" style="fill:#aea;stroke:black;"/>
   <text width="95" height="20" x="436" y="416" style="fill:black;" font-family="Arial" font-size="16px">id</text>
   <rect width="95" height="20" x="431" y="422" style="fill:none;stroke:black;"/>
   <text width="95" height="20" x="436" y="436" style="fill:black;" font-family="Arial" font-size="16px">name</text>
   <rect width="95" height="20" x="431" y="442" style="fill:none;stroke:black;"/>
   <text width="95" height="20" x="436" y="456" style="fill:black;" font-family="Arial" font-size="16px">description</text>
   <rect width="95" height="20" x="431" y="462" style="fill:none;stroke:black;"/>
   <text width="95" height="20" x="436" y="476" style="fill:black;" font-family="Arial" font-size="16px">amount</text>
   <rect width="95" height="20" x="431" y="482" style="fill:none;stroke:black;"/>
   <text width="95" height="20" x="436" y="496" style="fill:black;" font-family="Arial" font-size="16px">created_at</text>
   <rect width="95" height="20" x="431" y="502" style="fill:none;stroke:black;"/>
   <text width="95" height="20" x="436" y="516" style="fill:black;" font-family="Arial" font-size="16px">updated_at</text>
   <rect width="147" height="20" x="118" y="26" style="fill:#007;stroke:black;"/>
   <text width="147" height="20" x="123" y="40" style="fill:#fff;" font-family="Arial" font-size="16px"> students</text>
   <rect width="147" height="20" x="118" y="46" style="fill:#aea;stroke:black;"/>
   <text width="147" height="20" x="123" y="60" style="fill:black;" font-family="Arial" font-size="16px">id</text>
   <rect width="147" height="20" x="118" y="66" style="fill:none;stroke:black;"/>
   <text width="147" height="20" x="123" y="80" style="fill:black;" font-family="Arial" font-size="16px">user_id</text>
   <rect width="147" height="20" x="118" y="86" style="fill:none;stroke:black;"/>
   <text width="147" height="20" x="123" y="100" style="fill:black;" font-family="Arial" font-size="16px">academic_year</text>
   <rect width="147" height="20" x="118" y="106" style="fill:none;stroke:black;"/>
   <text width="147" height="20" x="123" y="120" style="fill:black;" font-family="Arial" font-size="16px">baccalaureate_year</text>
   <rect width="147" height="20" x="118" y="126" style="fill:none;stroke:black;"/>
   <text width="147" height="20" x="123" y="140" style="fill:black;" font-family="Arial" font-size="16px">study_system</text>
   <rect width="147" height="20" x="118" y="146" style="fill:none;stroke:black;"/>
   <text width="147" height="20" x="123" y="160" style="fill:black;" font-family="Arial" font-size="16px">level</text>
   <rect width="147" height="20" x="118" y="166" style="fill:none;stroke:black;"/>
   <text width="147" height="20" x="123" y="180" style="fill:black;" font-family="Arial" font-size="16px">created_at</text>
   <rect width="147" height="20" x="118" y="186" style="fill:none;stroke:black;"/>
   <text width="147" height="20" x="123" y="200" style="fill:black;" font-family="Arial" font-size="16px">updated_at</text>
   <rect width="144" height="20" x="555" y="20" style="fill:#007;stroke:black;"/>
   <text width="144" height="20" x="560" y="34" style="fill:#fff;" font-family="Arial" font-size="16px"> student_scholarship</text>
   <rect width="144" height="20" x="555" y="40" style="fill:#aea;stroke:black;"/>
   <text width="144" height="20" x="560" y="54" style="fill:black;" font-family="Arial" font-size="16px">id</text>
   <rect width="144" height="20" x="555" y="60" style="fill:none;stroke:black;"/>
   <text width="144" height="20" x="560" y="74" style="fill:black;" font-family="Arial" font-size="16px">student_id</text>
   <rect width="144" height="20" x="555" y="80" style="fill:none;stroke:black;"/>
   <text width="144" height="20" x="560" y="94" style="fill:black;" font-family="Arial" font-size="16px">scholarship_id</text>
   <rect width="144" height="20" x="555" y="100" style="fill:none;stroke:black;"/>
   <text width="144" height="20" x="560" y="114" style="fill:black;" font-family="Arial" font-size="16px">grant_date</text>
   <rect width="144" height="20" x="555" y="120" style="fill:none;stroke:black;"/>
   <text width="144" height="20" x="560" y="134" style="fill:black;" font-family="Arial" font-size="16px">end_date</text>
   <rect width="144" height="20" x="555" y="140" style="fill:none;stroke:black;"/>
   <text width="144" height="20" x="560" y="154" style="fill:black;" font-family="Arial" font-size="16px">status</text>
   <rect width="144" height="20" x="555" y="160" style="fill:none;stroke:black;"/>
   <text width="144" height="20" x="560" y="174" style="fill:black;" font-family="Arial" font-size="16px">paid_at</text>
   <rect width="144" height="20" x="555" y="180" style="fill:none;stroke:black;"/>
   <text width="144" height="20" x="560" y="194" style="fill:black;" font-family="Arial" font-size="16px">reference</text>
   <rect width="144" height="20" x="555" y="200" style="fill:none;stroke:black;"/>
   <text width="144" height="20" x="560" y="214" style="fill:black;" font-family="Arial" font-size="16px">created_at</text>
   <rect width="144" height="20" x="555" y="220" style="fill:none;stroke:black;"/>
   <text width="144" height="20" x="560" y="234" style="fill:black;" font-family="Arial" font-size="16px">updated_at</text>
   <rect width="86" height="20" x="0" y="157" style="fill:#007;stroke:black;"/>
   <text width="86" height="20" x="5" y="171" style="fill:#fff;" font-family="Arial" font-size="16px"> universities</text>
   <rect width="86" height="20" x="0" y="177" style="fill:#aea;stroke:black;"/>
   <text width="86" height="20" x="5" y="191" style="fill:black;" font-family="Arial" font-size="16px">id</text>
   <rect width="86" height="20" x="0" y="197" style="fill:none;stroke:black;"/>
   <text width="86" height="20" x="5" y="211" style="fill:black;" font-family="Arial" font-size="16px">name</text>
   <rect width="86" height="20" x="0" y="217" style="fill:none;stroke:black;"/>
   <text width="86" height="20" x="5" y="231" style="fill:black;" font-family="Arial" font-size="16px">city</text>
   <rect width="86" height="20" x="0" y="237" style="fill:none;stroke:black;"/>
   <text width="86" height="20" x="5" y="251" style="fill:black;" font-family="Arial" font-size="16px">created_at</text>
   <rect width="86" height="20" x="0" y="257" style="fill:none;stroke:black;"/>
   <text width="86" height="20" x="5" y="271" style="fill:black;" font-family="Arial" font-size="16px">updated_at</text>
   <rect width="109" height="20" x="350" y="112" style="fill:#007;stroke:black;"/>
   <text width="109" height="20" x="355" y="126" style="fill:#fff;" font-family="Arial" font-size="16px"> users</text>
   <rect width="109" height="20" x="350" y="132" style="fill:#aea;stroke:black;"/>
   <text width="109" height="20" x="355" y="146" style="fill:black;" font-family="Arial" font-size="16px">id</text>
   <rect width="109" height="20" x="350" y="152" style="fill:none;stroke:black;"/>
   <text width="109" height="20" x="355" y="166" style="fill:black;" font-family="Arial" font-size="16px">university_id</text>
   <rect width="109" height="20" x="350" y="172" style="fill:none;stroke:black;"/>
   <text width="109" height="20" x="355" y="186" style="fill:black;" font-family="Arial" font-size="16px">department_id</text>
   <rect width="109" height="20" x="350" y="192" style="fill:none;stroke:black;"/>
   <text width="109" height="20" x="355" y="206" style="fill:black;" font-family="Arial" font-size="16px">first_name</text>
   <rect width="109" height="20" x="350" y="212" style="fill:none;stroke:black;"/>
   <text width="109" height="20" x="355" y="226" style="fill:black;" font-family="Arial" font-size="16px">last_name</text>
   <rect width="109" height="20" x="350" y="232" style="fill:none;stroke:black;"/>
   <text width="109" height="20" x="355" y="246" style="fill:black;" font-family="Arial" font-size="16px">email</text>
   <rect width="109" height="20" x="350" y="252" style="fill:none;stroke:black;"/>
   <text width="109" height="20" x="355" y="266" style="fill:black;" font-family="Arial" font-size="16px">password</text>
   <rect width="109" height="20" x="350" y="272" style="fill:none;stroke:black;"/>
   <text width="109" height="20" x="355" y="286" style="fill:black;" font-family="Arial" font-size="16px">date_of_birth</text>
   <rect width="109" height="20" x="350" y="292" style="fill:none;stroke:black;"/>
   <text width="109" height="20" x="355" y="306" style="fill:black;" font-family="Arial" font-size="16px">role</text>
   <rect width="109" height="20" x="350" y="312" style="fill:none;stroke:black;"/>
   <text width="109" height="20" x="355" y="326" style="fill:black;" font-family="Arial" font-size="16px">is_active</text>
   <rect width="109" height="20" x="350" y="332" style="fill:none;stroke:black;"/>
   <text width="109" height="20" x="355" y="346" style="fill:black;" font-family="Arial" font-size="16px">created_at</text>
   <rect width="109" height="20" x="350" y="352" style="fill:none;stroke:black;"/>
   <text width="109" height="20" x="355" y="366" style="fill:black;" font-family="Arial" font-size="16px">updated_at</text>
</svg>
